<svg width="400" height="400" viewBox="0 0 400 400" fill="none" xmlns="http://www.w3.org/2000/svg">
<path d="M164.017 190.897C223.693 242.225 264.21 126.926 198.388 114.565C146.418 104.804 121.003 158.821 163.273 189.395" stroke="black" stroke-opacity="0.9" stroke-width="12" stroke-linecap="round" stroke-linejoin="round"/>
<path d="M187.162 327C187.162 290.129 181.817 253.258 171.128 216.387C129.664 317.894 207.106 293.956 226.246 291.711C232.749 291.711 236.001 291.711 236.001 291.711" stroke="black" stroke-opacity="0.9" stroke-width="12" stroke-linecap="round" stroke-linejoin="round"/>
<path d="M171.434 216.046C235.154 310.681 232.18 293.817 232.18 210.572C227.145 206.883 222.331 206.883 217.738 210.572" stroke="black" stroke-opacity="0.9" stroke-width="12" stroke-linecap="round" stroke-linejoin="round"/>
<path opacity="0.505441" d="M170.484 32.4615C174.085 24.7558 181.14 20.5884 186.593 19.4066C193.99 17.8034 200.245 20.9429 202.387 28.7898C203.127 31.4967 202.827 35.8439 201.134 38.7064C199.574 41.345 197.498 43.5081 194.091 46.412C193.455 46.9538 191.286 48.7645 191.082 48.9366C186.446 52.8426 184.161 55.4144 182.848 58.6715C181.536 61.9285 181.605 72.0405 191.082 71.1756" stroke="black" stroke-opacity="0.9" stroke-width="12" stroke-linecap="round" stroke-linejoin="round"/>
<path opacity="0.505441" d="M186.143 84.7683C186.143 85.2076 186.143 85.8524 186.143 86.7027" stroke="black" stroke-opacity="0.9" stroke-width="12" stroke-linecap="round" stroke-linejoin="round"/>
</svg>
